<?xml version="1.0" encoding="utf-8"?>
<!-- Generator: Adobe Illustrator 26.0.2, SVG Export Plug-In . SVG Version: 6.00 Build 0)  -->
<svg version="1.1" id="Layer_1" xmlns="http://www.w3.org/2000/svg" xmlns:xlink="http://www.w3.org/1999/xlink" x="0px" y="0px"
	 viewBox="0 0 500 500" style="enable-background:new 0 0 500 500;" xml:space="preserve">
<style type="text/css">
	.st0{fill-rule:evenodd;clip-rule:evenodd;fill:#FCF8EB;}
</style>
<g>
	<path class="st0" d="M341.6,128.3c16.4,0,29.7,13.3,29.7,29.7v184c0,16.4-13.3,29.7-29.7,29.7H157.7c-16.4,0-29.7-13.3-29.7-29.7
		V158c0-16.4,13.3-29.7,29.7-29.7H341.6L341.6,128.3z M344.6,285.5c0.4-6.6-0.1-12.8-1.6-18.9c-1.5-6-4-11.4-7.4-16.1
		c-3.5-4.7-7.9-8.5-13.2-11.2c-5.4-2.8-11.7-4.2-18.8-4.2c-6.5,0-12.4,1.2-17.7,3.4c-5.3,2.3-9.9,5.5-13.7,9.4
		c-3.8,4-6.8,8.7-8.9,14.2s-3.1,11.4-3.1,17.7c0,6.5,1,12.6,3,18.1s4.9,10.2,8.6,14.1c3.8,3.9,8.3,7,13.7,9.1
		c5.4,2.1,11.4,3.2,18.1,3.2c9.6,0,17.8-2.2,24.5-6.6c6.8-4.4,11.8-11.7,15.1-21.9h-20.5c-0.8,2.6-2.8,5.1-6.2,7.5
		c-3.4,2.4-7.5,3.6-12.1,3.6c-6.5,0-11.6-1.7-15.1-5.1s-5.8-9.7-5.8-16.4L344.6,285.5L344.6,285.5z M211.3,322.2
		c5.2,0,10.4-0.7,15.3-2c5-1.3,9.4-3.3,13.3-6.1c3.8-2.7,7-6.2,9.3-10.6c2.3-4.3,3.4-9.4,3.4-15.3c0-7.3-1.7-13.6-5.3-18.8
		c-3.5-5.2-8.9-8.8-16.1-10.9c5.3-2.5,9.2-5.7,11.9-9.6c2.7-3.9,4-8.9,4-14.7c0-5.4-0.9-10-2.7-13.7s-4.4-6.7-7.6-8.9
		c-3.3-2.2-7.2-3.9-11.8-4.8c-4.6-1-9.7-1.5-15.3-1.5h-55.1v117h56.7V322.2z M208.3,270.1c5.5,0,10,1.3,13.4,3.8
		c3.4,2.6,5.1,6.9,5.1,12.9c0,3.1-0.5,5.6-1.5,7.6s-2.5,3.5-4.2,4.7s-3.8,2-6.1,2.5s-4.7,0.7-7.2,0.7h-27.5v-32.2H208.3z M316,257.4
		c-2.8-3.1-7.4-4.7-13.2-4.7c-3.7,0-6.8,0.6-9.3,1.9c-2.4,1.3-4.4,2.8-5.9,4.7s-2.5,3.9-3.1,6s-1,3.9-1.1,5.6h37.8
		C320.8,264.9,318.8,260.5,316,257.4L316,257.4z M204.4,225.2c2.3,0,4.5,0.2,6.6,0.6c2.2,0.4,4,1.1,5.7,2.1s3,2.3,4,4.1
		c1,1.7,1.4,4,1.4,6.7c0,4.9-1.4,8.5-4.4,10.6c-3,2.2-6.8,3.3-11.3,3.3h-26.1v-27.3h24.1V225.2z M326.1,224.7v-11.5h-47.4v11.5
		H326.1z"/>
</g>
</svg>
