<?xml version="1.0" encoding="utf-8"?>
<!-- Generator: Adobe Illustrator 26.0.2, SVG Export Plug-In . SVG Version: 6.00 Build 0)  -->
<svg version="1.1" id="Layer_1" xmlns="http://www.w3.org/2000/svg" xmlns:xlink="http://www.w3.org/1999/xlink" x="0px" y="0px"
	 viewBox="0 0 500 500" style="enable-background:new 0 0 500 500;" xml:space="preserve">
<style type="text/css">
	.st0{fill-rule:evenodd;clip-rule:evenodd;fill:#FCF8EB;}
</style>
<g>
	<path class="st0" d="M341.6,128.3c16.4,0,29.7,13.3,29.7,29.7v184c0,16.4-13.3,29.7-29.7,29.7H291V280h31.7l6-39.3H291v-25.5
		c0-10.7,5.3-21.2,22.1-21.2h17.1v-33.4c0,0-15.6-2.7-30.4-2.7c-31,0-51.3,18.8-51.3,52.9v29.9H214V280h34.5v91.7h-90.9
		c-16.4,0-29.7-13.3-29.7-29.7V158c0-16.4,13.3-29.7,29.7-29.7H341.6L341.6,128.3z"/>
</g>
</svg>
