<?xml version="1.0" encoding="utf-8"?>
<!-- Generator: Adobe Illustrator 26.0.2, SVG Export Plug-In . SVG Version: 6.00 Build 0)  -->
<svg version="1.1" id="Layer_1" xmlns="http://www.w3.org/2000/svg" xmlns:xlink="http://www.w3.org/1999/xlink" x="0px" y="0px"
	 viewBox="0 0 500 500" style="enable-background:new 0 0 500 500;" xml:space="preserve">
<style type="text/css">
	.st0{fill-rule:evenodd;clip-rule:evenodd;fill:#FCF8EB;}
</style>
<g>
	<path class="st0" d="M341.6,128.3c16.4,0,29.7,13.3,29.7,29.7v184c0,16.4-13.3,29.7-29.7,29.7H157.7c-16.4,0-29.7-13.3-29.7-29.7
		V158c0-16.4,13.3-29.7,29.7-29.7H341.6L341.6,128.3z M249.7,166.8c-22.6,0-25.4,0.1-34.3,0.5c-8.9,0.4-14.9,1.8-20.2,3.9
		c-5.5,2.1-10.1,5-14.7,9.6c-4.6,4.6-7.5,9.3-9.6,14.7c-2.1,5.3-3.5,11.3-3.9,20.2s-0.5,11.7-0.5,34.3s0.1,25.4,0.5,34.3
		s1.8,14.9,3.9,20.2c2.1,5.5,5,10.1,9.6,14.7s9.3,7.5,14.7,9.6c5.3,2.1,11.3,3.5,20.2,3.9s11.7,0.5,34.3,0.5s25.4-0.1,34.3-0.5
		s14.9-1.8,20.2-3.9c5.5-2.1,10.1-5,14.7-9.6s7.5-9.3,9.6-14.7c2.1-5.3,3.5-11.3,3.9-20.2c0.4-8.9,0.5-11.7,0.5-34.3
		s-0.1-25.4-0.5-34.3c-0.4-8.9-1.8-14.9-3.9-20.2c-2.1-5.5-5-10.1-9.6-14.7c-4.6-4.6-9.3-7.5-14.7-9.6c-5.3-2.1-11.3-3.5-20.2-3.9
		C275.1,166.9,272.3,166.8,249.7,166.8z M249.7,181.8c22.2,0,24.8,0.1,33.6,0.5c8.1,0.4,12.5,1.7,15.4,2.9c3.9,1.5,6.7,3.3,9.6,6.2
		s4.7,5.7,6.2,9.6c1.1,2.9,2.5,7.3,2.9,15.4c0.4,8.8,0.5,11.4,0.5,33.6s-0.1,24.8-0.5,33.6c-0.4,8.1-1.7,12.5-2.9,15.4
		c-1.5,3.9-3.3,6.7-6.2,9.6c-2.9,2.9-5.7,4.7-9.6,6.2c-2.9,1.1-7.3,2.5-15.4,2.9c-8.8,0.4-11.4,0.5-33.6,0.5s-24.8-0.1-33.6-0.5
		c-8.1-0.4-12.5-1.7-15.4-2.9c-3.9-1.5-6.7-3.3-9.6-6.2s-4.7-5.7-6.2-9.6c-1.1-2.9-2.5-7.3-2.9-15.4c-0.4-8.8-0.5-11.4-0.5-33.6
		s0.1-24.8,0.5-33.6c0.4-8.1,1.7-12.5,2.9-15.4c1.5-3.9,3.3-6.7,6.2-9.6c2.9-2.9,5.7-4.7,9.6-6.2c2.9-1.1,7.3-2.5,15.4-2.9
		C224.8,181.9,227.5,181.8,249.7,181.8L249.7,181.8z M249.7,207.3c-23.6,0-42.7,19.1-42.7,42.7s19.1,42.7,42.7,42.7
		s42.7-19.1,42.7-42.7S273.3,207.3,249.7,207.3L249.7,207.3z M249.7,277.7c-15.3,0-27.7-12.4-27.7-27.7s12.4-27.7,27.7-27.7
		s27.7,12.4,27.7,27.7S265,277.7,249.7,277.7z M304.1,205.6c0,5.5-4.5,10-10,10s-10-4.5-10-10s4.5-10,10-10S304.1,200.1,304.1,205.6
		L304.1,205.6z"/>
</g>
</svg>
