<?xml version="1.0" encoding="utf-8"?>
<!-- Generator: Adobe Illustrator 26.0.2, SVG Export Plug-In . SVG Version: 6.00 Build 0)  -->
<svg version="1.1" id="Layer_1" xmlns="http://www.w3.org/2000/svg" xmlns:xlink="http://www.w3.org/1999/xlink" x="0px" y="0px"
	 viewBox="0 0 750 750" style="enable-background:new 0 0 750 750;" xml:space="preserve">
<path d="M203,105.6v538.5h344.2V105.6H203 M536.3,633.2H213.7V116.4h322.5V633.2"/>
<g>
	<g>
		<g>
			<path d="M282.5,323.6h1.3c5.8,0,11.3-1.3,16.6-4.3c11.7-6.6,17.5-17.2,17.5-31.5c0-4.9-0.9-10.2-2.6-15.8
				c-2.6-7-6.4-14-11.5-20.8c-4.9-6-11.3-11.7-19.2-16.6c-12.1-7.4-20.2-15.1-24.5-23.4c-4.3-7.9-6.4-15.1-6.4-21.1
				c0-6.4,1.3-12.1,4.3-16.8c2.5-3.8,6-7,10.6-9.8c4-2.3,8.7-3.4,14-3.4h1.3c4.9,0,9.4,1.1,13.2,3.4c4.3,2.6,7.5,5.9,9.6,9.8
				c2.3,4.2,3.6,8.5,3.6,13.2v1.1h5.5v-1.1c0-5.7-1.5-10.9-4.3-16.2c-2.6-4.5-6.6-8.3-11.5-11.3c-5.1-2.8-10.4-4.3-16-4.3h-1.3
				c-5.7,0-11.3,1.5-16.6,4.3c-4.9,2.6-9.1,6.6-12.6,11.7c-3.4,5.3-4.9,11.7-4.9,19.6c0,6.8,2.3,14.7,7,23.6
				c4.5,8.9,13.4,17.2,26.2,25.1c12.1,7.7,20.4,16,24.9,24.9c4,8.7,6,16.8,6,24.3c0,12.5-4.9,21.1-14.7,26.4
				c-4.7,2.6-9.4,3.8-14,3.8h-1.3c-4.9,0-9.2-1.1-13.2-3.6c-4.2-2.3-7.4-5.5-9.8-9.6c-2.5-4.2-3.6-8.7-3.6-13.4v-0.9h-5.3v0.9
				c0,5.7,1.3,11.1,4.3,16c2.6,4.9,6.4,8.9,11.5,11.7C271.4,322.3,276.9,323.6,282.5,323.6z"/>
		</g>
	</g>
</g>
<g>
	<g>
		<g>
			<path d="M339.5,156.8h-5.3v164.9h5.3v-70.4h57.5v70.4h5.7V156.8h-5.7v89.2h-57.5V156.8z"/>
		</g>
	</g>
</g>
<g>
	<g>
		<g>
			<path d="M452.3,324h1.5c6.4,0,11.9-1.3,16.8-4.2c4.7-2.6,8.9-6.4,12.3-11.5c3-4.5,4.5-10,4.5-16.2V186.8c0-5.9-1.5-11.1-4.5-15.9
				c-3-4.7-7-8.7-12.3-11.7c-4.9-2.8-10.4-4.3-16.8-4.3h-1.5c-6,0-11.7,1.5-16.8,4.3c-5.3,3-9.4,6.8-12.1,11.7
				c-3.2,5.3-4.7,10.6-4.7,15.9v105.3c0,6,1.5,11.3,4.5,16.2c3.4,5.1,7.5,8.9,12.3,11.3C440.8,322.7,446.5,324,452.3,324z
				 M453.8,318.7h-1.5c-5.1,0-9.8-1.1-14.1-3.6c-4.3-2.3-7.7-5.5-10.4-9.6s-3.8-8.7-3.8-13.4V186.8c0-4.3,1.1-8.7,3.8-13.2
				c2.3-3.8,5.7-7.2,10.4-9.8c4.1-2.3,8.9-3.4,14.1-3.4h1.5c5.1,0,9.8,1.1,14.1,3.4c4.5,2.6,7.9,5.8,10.2,9.8
				c2.5,3.8,3.8,8.3,3.8,13.2v105.3c0,5.1-1.3,9.6-3.8,13.4c-2.6,4.2-6,7.4-10.2,9.6C463.5,317.6,458.7,318.7,453.8,318.7z"/>
		</g>
	</g>
</g>
<g>
	<g>
		<g>
			<path d="M282.5,509.8h1.3c5.8,0,11.3-1.3,16.6-4.3c11.7-6.6,17.5-17.2,17.5-31.5c0-4.9-0.9-10.2-2.6-15.8
				c-2.6-7-6.4-14-11.5-20.8c-4.9-6-11.3-11.7-19.2-16.6c-12.1-7.4-20.2-15.1-24.5-23.4c-4.3-7.9-6.4-15.1-6.4-21.1
				c0-6.4,1.3-12.1,4.3-16.8c2.5-3.8,6-7,10.6-9.8c4-2.3,8.7-3.4,14-3.4h1.3c4.9,0,9.4,1.1,13.2,3.4c4.3,2.6,7.5,5.9,9.6,9.8
				c2.3,4.2,3.6,8.5,3.6,13.2v1.1h5.5v-1.1c0-5.7-1.5-10.9-4.3-16.2c-2.6-4.5-6.6-8.3-11.5-11.3c-5.1-2.8-10.4-4.3-16-4.3h-1.3
				c-5.7,0-11.3,1.5-16.6,4.3c-4.9,2.6-9.1,6.6-12.6,11.7c-3.4,5.3-4.9,11.7-4.9,19.6c0,6.8,2.3,14.7,7,23.6
				c4.5,8.9,13.4,17.2,26.2,25.1c12.1,7.7,20.4,16,24.9,24.9c4,8.7,6,16.8,6,24.3c0,12.5-4.9,21.1-14.7,26.4
				c-4.7,2.6-9.4,3.8-14,3.8h-1.3c-4.9,0-9.2-1.1-13.2-3.6c-4.2-2.3-7.4-5.5-9.8-9.6c-2.5-4.2-3.6-8.7-3.6-13.4V477h-5.3v0.9
				c0,5.7,1.3,11.1,4.3,16c2.6,4.9,6.4,8.9,11.5,11.7C271.4,508.5,276.9,509.8,282.5,509.8z"/>
		</g>
	</g>
</g>
<g>
	<g>
		<g>
			<path d="M339.5,343h-5.3v164.9h5.3v-70.4h57.5v70.4h5.7V343h-5.7v89.2h-57.5V343z"/>
		</g>
	</g>
</g>
<g>
	<g>
		<g>
			<path d="M452.3,510.2h1.5c6.4,0,11.9-1.3,16.8-4.2c4.7-2.6,8.9-6.4,12.3-11.5c3-4.5,4.5-10,4.5-16.2V373c0-5.9-1.5-11.1-4.5-15.9
				c-3-4.7-7-8.7-12.3-11.7c-4.9-2.8-10.4-4.3-16.8-4.3h-1.5c-6,0-11.7,1.5-16.8,4.3c-5.3,3-9.4,6.8-12.1,11.7
				c-3.2,5.3-4.7,10.6-4.7,15.9v105.3c0,6,1.5,11.3,4.5,16.2c3.4,5.1,7.5,8.9,12.3,11.3C440.8,508.9,446.5,510.2,452.3,510.2z
				 M453.8,504.9h-1.5c-5.1,0-9.8-1.1-14.1-3.6c-4.3-2.3-7.7-5.5-10.4-9.6s-3.8-8.7-3.8-13.4V373c0-4.3,1.1-8.7,3.8-13.2
				c2.3-3.8,5.7-7.2,10.4-9.8c4.1-2.3,8.9-3.4,14.1-3.4h1.5c5.1,0,9.8,1.1,14.1,3.4c4.5,2.6,7.9,5.8,10.2,9.8
				c2.5,3.8,3.8,8.3,3.8,13.2v105.3c0,5.1-1.3,9.6-3.8,13.4c-2.6,4.2-6,7.4-10.2,9.6C463.5,503.8,458.7,504.9,453.8,504.9z"/>
		</g>
	</g>
</g>
<g>
	<g>
		<g>
			<path d="M429.6,573.4c-0.3-0.4-0.9-0.5-1.3-0.2c-5,3.5-9.6,6.9-13.7,10.1c-2.8-4.6-10.3-7.7-20.3-11.7c-1.3-0.5-2.6-1-3.9-1.6
				c-3.9-1.6-5.3-4-4.2-7.4c1.5-4.7,7.7-11,16.1-16.4c8-5.1,15.9-7.9,19.6-7.1c1.2,0.2,2.5,0.9,2.1,3.7c-0.1,0.5,0.3,1,0.8,1.1
				c0.5,0.1,1-0.3,1.1-0.8c0.6-4.2-2-5.4-3.5-5.8c-9-2-34.3,13.2-38,24.7c-1.3,4.3,0.5,7.8,5.3,9.8c1.3,0.5,2.7,1.1,3.9,1.6
				c10.7,4.3,17.3,7.2,19.5,11.1c-17.4,13.6-26.3,23.4-24.8,27.6c0.2,0.7,1,1.7,3.1,1.7c0.1,0,0.3,0,0.5,0
				c6.6-0.5,21-10.3,23.7-24.3c0.3-1.6,0.2-3.1-0.1-4.4c4.2-3.2,8.8-6.6,13.9-10.3C429.8,574.4,429.9,573.8,429.6,573.4z
				 M413.7,589.1c-2.7,13.3-16.6,22.3-22,22.8c-0.5,0-1.4,0-1.6-0.5c-0.5-1.5,2.2-5.7,7-10.5c4.1-4.2,9.7-9.1,16.6-14.5
				C414,587.2,413.9,588,413.7,589.1z"/>
		</g>
	</g>
</g>
<g>
	<g>
		<g>
			<path d="M469.3,555.5c-0.6-0.9-3.5-1.4-34.1-0.7c1-4,1.9-7.6,2.7-10.5c0.1-0.5-0.1-1-0.6-1.2s-1,0.1-1.2,0.6
				c-0.8,3.1-1.8,6.8-2.8,11.1c-2.7,0-5.7,0.1-8.9,0.2c-4.4,0.1-7.8,0.2-9.2,0.2c-0.5,0-1,0.4-1,0.9c0,0.5,0.4,1,1,1
				c1.4,0,4.8-0.1,9.2-0.2c2.3,0,5.2-0.1,8.4-0.2c-2.1,9-4.5,19.7-6.7,30.2c-1.6,7.7-2.9,14.3-3.7,19.2c-0.4,2.6-0.7,4.6-0.9,6
				c-0.2,1.9-0.3,3,0.6,3.3c0.1,0,0.2,0.1,0.4,0.1c0.8,0,1.3-1.2,1.7-2.3c0.2-0.5-0.1-1-0.5-1.2c-0.1,0-0.1-0.1-0.2-0.1
				c0.5-3.8,2-12.5,4.8-26.1c2.1-10.3,4.4-20.6,6.5-29.2c13.5-0.3,31.1-0.5,33.1,0.1c0.3,0.3,0.8,0.3,1.2,0.1
				C469.5,556.6,469.6,556,469.3,555.5z"/>
		</g>
	</g>
</g>
<g>
	<g>
		<g>
			<path d="M453.8,574c-0.4-0.2-1-0.1-1.3,0.3c-4.7,7.5-8.6,10.8-9.5,10.5c0,0-1-0.5,0-6.2c0.3-1.9,0.5-3-0.4-3.4
				c-0.9-0.3-1.4,0.4-2.5,1.9c-0.8,1.2-2,2.8-3.2,3.8c-0.1,0.1-0.7,0.6-0.9,0.4c-0.7-0.6-0.9-3.8,0.8-6.7c0.3-0.4,0.1-1-0.3-1.3
				c-0.4-0.2-1-0.1-1.3,0.3c-2,3.4-2.2,7.7-0.4,9.2c0.4,0.4,1.7,1.1,3.4-0.3c1.1-1,2.1-2.3,2.9-3.3c-0.7,4.6-0.3,6.9,1.3,7.5
				c0.2,0.1,0.5,0.1,0.7,0.1c3.7,0,9.8-9.5,11-11.4C454.4,574.8,454.3,574.3,453.8,574z"/>
		</g>
	</g>
</g>
<g>
	<g>
		<g>
			<path d="M472.9,543.5c-0.3-0.3-0.8-0.4-1.2-0.3c-2.1,0.7-5.9,11-9.6,27.9c-0.1,0.3-0.2,0.5-0.4,0.8c-0.2-1.9-1.5-2.5-2-2.6
				c-2.1-0.6-5.5,1.3-7.8,6.2c-1.8,3.7-2.1,8.5,0.1,9.8c1.1,0.6,3,0.5,5.7-3.4c1.2-1.7,2.2-3.3,3.2-4.9c-0.5,2.8-1.1,5.8-1.6,8.9
				c-0.9,5.5-1.6,10.1-2,13.5c-0.8,6.6-0.4,7.4,0.6,7.7c0.1,0,0.2,0,0.3,0c0.9,0,1.5-1.1,1.8-1.9c0.2-0.4,0.1-1-0.4-1.2
				c-0.2-0.1-0.5-0.1-0.8-0.1c0.1-2.1,0.6-6.9,2.4-17.8c0.9-5.4,1.8-10.2,2.7-14.5c3.7-7,5.6-12.9,7.1-17.6c0.2-0.6,0.4-1.1,0.5-1.6
				C474.2,544.8,473.2,543.8,472.9,543.5z M456.2,580.9c-1.9,2.7-2.9,3-3.2,2.9c-0.7-0.4-1-3.8,0.7-7.4c1.7-3.5,3.9-5.2,5.2-5.2
				c0.1,0,0.2,0,0.3,0.1c0.8,0.2,0.6,1.6,0.6,2c-0.1,0.4,0.2,0.9,0.6,1C459.2,576.3,457.8,578.5,456.2,580.9z M469.8,552
				c-0.2,0.5-0.4,1-0.5,1.6c-0.9,2.7-1.9,5.7-3.2,9.1c2.1-8.2,3.9-13.3,5.1-15.9C471,548,470.5,549.7,469.8,552z"/>
		</g>
	</g>
</g>
<g>
	<g>
		<g>
			<path d="M481.7,573.4c-0.4-0.3-1-0.1-1.3,0.3c-3.3,5.3-8.8,10.3-10.5,9.7c-0.2-0.1-1.8-1,0.4-9.4c0.1-0.5-0.2-1-0.7-1.2
				c-0.5-0.1-1,0.2-1.2,0.7c-1.8,6.9-1.5,10.6,0.7,11.6c0.3,0.1,0.7,0.2,1,0.2c3.7,0,9.4-6.6,11.9-10.6
				C482.3,574.3,482.1,573.7,481.7,573.4z M470,569.4c2.5,0.1,2.5-3,0.4-2.3C469.5,567.4,468.1,569.3,470,569.4z"/>
		</g>
	</g>
</g>
<g>
	<g>
		<g>
			<path d="M497.6,573.9c-0.4-0.3-1-0.2-1.3,0.1c-2.1,2.7-5.5,4.9-8.1,4.4c0.1-0.3,0.1-0.7,0.1-1c0.3-5.6-1.4-6.7-2.4-6.9
				c-1.2-0.2-2.4,0.6-3,2.1c-0.2-0.1-0.5-0.1-0.8,0.1c-2,1.2-3.6,4.4-2.7,7.8c0.6,2,2,3.3,3.8,3.3c1.7,0,3.5-1.3,4.5-3.5
				c3.4,0.7,7.6-1.8,10.1-5C498.1,574.8,498,574.2,497.6,573.9z M483.2,581.9C483.1,581.9,483.1,581.9,483.2,581.9
				c-1.3,0-1.8-1.2-2-1.9c-0.5-1.7-0.1-4,1.3-5.3c0.1,1.7,1,3.5,3.4,4.8C485.2,581.1,484,581.9,483.2,581.9z M486.4,577.3
				c-0.1,0.1-0.1,0.2-0.1,0.3c-1.9-1.2-2.2-2.8-1.8-4c0.2-0.8,0.7-1.2,1-1.2C485.8,572.4,486.6,573.4,486.4,577.3z"/>
		</g>
	</g>
</g>
</svg>
